<svg width="64" height="64" viewBox="0 0 64 64" fill="none" xmlns="http://www.w3.org/2000/svg">
<circle cx="17.5" cy="46.5" r="17.5" fill="#BBF7D1"/>
<path d="M26.3736 39.5146L30.2403 42.5012C30.747 43.0079 31.867 43.2479 32.6136 43.2479H37.3336C38.827 43.2479 40.4536 42.1279 40.827 40.6346L43.8136 31.5146C44.427 29.7812 43.307 28.2612 41.4403 28.2612H36.4536C35.707 28.2612 35.0936 27.6479 35.2003 26.7679L35.8136 22.7679C36.0536 21.6479 35.307 20.3946 34.187 20.0212C33.2003 19.6479 31.947 20.1546 31.4403 20.9012L26.3203 28.5012" stroke="#9742FF" stroke-width="2" stroke-miterlimit="10"/>
<path d="M20 39.5144V27.3011C20 25.5411 20.7467 24.9277 22.5067 24.9277H23.76C25.4933 24.9277 26.2667 25.5411 26.2667 27.3011V39.5144C26.2667 41.2477 25.52 41.8877 23.76 41.8877H22.5067C20.7467 41.8877 20 41.2744 20 39.5144Z" stroke="#9742FF" stroke-width="2" stroke-linecap="round" stroke-linejoin="round"/>
<path d="M39.0937 53.3598L35.0404 57.4131C33.3871 59.0664 30.6671 59.0664 29.0137 57.4131L24.9604 53.3598C24.2671 52.6664 22.9071 52.1064 21.9471 52.1064H16.2137C13.8671 52.1064 11.9471 50.1864 11.9471 47.8398V42.1064C11.9471 41.1464 11.3871 39.7864 10.6937 39.0931L6.64039 35.0398C4.98706 33.3864 4.98706 30.6664 6.64039 29.0131L10.6937 24.9597C11.3871 24.2664 11.9471 22.9064 11.9471 21.9464V16.2131C11.9471 13.8664 13.8671 11.9464 16.2137 11.9464M24.9071 10.6371L28.9604 6.58375C30.6137 4.93042 33.3337 4.93042 34.9871 6.58375L39.0404 10.6371C39.7337 11.3304 41.0937 11.8904 42.0537 11.8904H47.7871C50.1337 11.8904 52.0537 13.8104 52.0537 16.1571V21.8904C52.0537 22.8504 52.6137 24.2104 53.3071 24.9037L57.3604 28.9571C59.0137 30.6104 59.0137 33.3304 57.3604 34.9838L53.3071 39.0371C52.6137 39.7304 52.0537 41.0904 52.0537 42.0504V47.7838C52.0537 50.1304 50.1337 52.0504 47.7871 52.0504" stroke="#9742FF" stroke-width="2" stroke-linecap="round" stroke-linejoin="round"/>
</svg>
