<svg width="64" height="64" viewBox="0 0 64 64" fill="none" xmlns="http://www.w3.org/2000/svg">
<circle cx="46.5" cy="17.5" r="17.5" fill="#FEF9C3"/>
<path d="M22.3467 31.9943L28.7733 38.4477L41.6533 25.541" stroke="#3B82F6" stroke-width="2" stroke-linecap="round" stroke-linejoin="round"/>
<path d="M11.3067 16.5283C11.3067 13.7017 13.6267 11.3817 16.4533 11.3817H21.0667C22.1333 11.3817 23.6267 10.8217 24.4267 10.155L28.64 6.555C30.5067 4.98167 33.52 4.98167 35.3333 6.555L39.5467 10.155C40.3467 10.8217 41.8667 11.3817 42.9333 11.3817H47.4667C50.2933 11.3817 52.6133 13.7017 52.6133 16.5283V21.0617C52.6133 22.1283 53.1734 23.6217 53.84 24.4217L57.44 28.635C59.0134 30.5017 59.0134 33.515 57.44 35.3283L53.84 39.5417C53.1734 40.3417 52.6133 41.835 52.6133 42.9017V47.435C52.6133 50.2617 50.2933 52.5817 47.4667 52.5817H42.9333C41.8667 52.5817 40.3733 53.1417 39.5733 53.8083L35.36 57.4083C33.4933 58.9817 30.48 58.9817 28.6667 57.4083L24.4533 53.8083C23.6533 53.1417 22.1333 52.5817 21.0933 52.5817H16.4533C13.6267 52.5817 11.3067 50.2617 11.3067 47.435V42.875C11.3067 41.835 10.7733 40.315 10.1067 39.5417L6.50668 35.3017C4.96001 33.4617 4.96001 30.475 6.50668 28.635L8.00001 26.875" stroke="#3B82F6" stroke-width="2" stroke-linecap="round" stroke-linejoin="round"/>
</svg>
