<svg width="64" height="64" viewBox="0 0 64 64" fill="none" xmlns="http://www.w3.org/2000/svg">
<circle cx="46.5" cy="45.5" r="17.5" fill="#F1E7FF"/>
<path d="M5.33301 58.6664H58.6663M7.99967 26.589C7.99967 24.9624 8.77301 23.4157 10.053 22.4024L28.7197 7.86902C30.6397 6.37569 33.333 6.37569 35.2797 7.86902L53.9463 22.3757C55.253 23.389 55.9997 24.9357 55.9997 26.589V58.669M7.86634 58.669L7.94634 37.4157" stroke="#FBD644" stroke-width="2" stroke-miterlimit="10" stroke-linecap="round" stroke-linejoin="round"/>
<path d="M26.667 43.3333V47.3333M28.0003 20H36.0003M41.3337 29.3333H22.667C20.4537 29.3333 18.667 31.12 18.667 33.3333V58.6667H45.3337V33.3333C45.3337 31.12 43.547 29.3333 41.3337 29.3333Z" stroke="#FBD644" stroke-width="2" stroke-miterlimit="10" stroke-linecap="round" stroke-linejoin="round"/>
</svg>
