<svg width="65" height="64" viewBox="0 0 65 64" fill="none" xmlns="http://www.w3.org/2000/svg">
<rect x="30" y="30" width="34" height="34" rx="17" fill="#F1E7FF"/>
<path d="M58.0092 27.8399L55.3958 38.9865C53.1558 48.6132 48.7292 52.5065 40.4092 51.7065C39.0758 51.5999 37.6358 51.3599 36.0892 50.9865L31.6092 49.9199C20.4892 47.2799 17.0492 41.7865 19.6625 30.6399L22.2758 19.4665C22.8092 17.1999 23.4492 15.2265 24.2492 13.5999C27.3692 7.14653 32.6758 5.41319 41.5825 7.51986L46.0358 8.55986C57.2092 11.1732 60.6225 16.6932 58.0092 27.8399Z" stroke="#FACC15" stroke-width="1.5" stroke-linecap="round" stroke-linejoin="round"/>
<path d="M40.4109 51.7068C38.7576 52.8268 36.6776 53.7601 34.1442 54.5868L29.9309 55.9734C19.3442 59.3868 13.7709 56.5334 10.3309 45.9468L6.91758 35.4134C3.50424 24.8268 6.33091 19.2268 16.9176 15.8134L21.1309 14.4268C22.2242 14.0801 23.2642 13.7868 24.2509 13.6001C23.4509 15.2268 22.8109 17.2001 22.2776 19.4668L19.6642 30.6401C17.0509 41.7868 20.4909 47.2801 31.6109 49.9201L36.0909 50.9868C37.6376 51.3601 39.0776 51.6001 40.4109 51.7068Z" stroke="#FACC15" stroke-width="1.5" stroke-linecap="round" stroke-linejoin="round"/>
<path d="M33.957 22.7466L46.8904 26.0266" stroke="#FACC15" stroke-width="1.5" stroke-linecap="round" stroke-linejoin="round"/>
<path d="M31.3438 33.0669L39.0771 35.0402" stroke="#FACC15" stroke-width="1.5" stroke-linecap="round" stroke-linejoin="round"/>
</svg>
