<svg width="64" height="64" viewBox="0 0 64 64" fill="none" xmlns="http://www.w3.org/2000/svg">
<rect x="27" width="34" height="34" rx="17" fill="#FEF9C3"/>
<path d="M8.45312 19.8398L31.9998 33.4665L55.3865 19.9198" stroke="#3B82F6" stroke-width="1.5" stroke-linecap="round" stroke-linejoin="round"/>
<path d="M32 57.6266V33.4399" stroke="#3B82F6" stroke-width="1.5" stroke-linecap="round" stroke-linejoin="round"/>
<path d="M26.4797 6.61343L12.2397 14.5068C9.01305 16.2934 6.37305 20.7734 6.37305 24.4534V39.5201C6.37305 43.2001 9.01305 47.6801 12.2397 49.4668L26.4797 57.3868C29.5197 59.0668 34.5064 59.0668 37.5464 57.3868L51.7864 49.4668C55.013 47.6801 57.653 43.2001 57.653 39.5201V24.4534C57.653 20.7734 55.013 16.2934 51.7864 14.5068L37.5464 6.58676C34.4797 4.90676 29.5197 4.90676 26.4797 6.61343Z" stroke="#3B82F6" stroke-width="1.5" stroke-linecap="round" stroke-linejoin="round"/>
</svg>
